<svg width="44" height="49" fill="none" xmlns="http://www.w3.org/2000/svg"><path d="M18.816 4.071a3.071 3.071 0 116.143 0c0 .874-.38 1.663-.951 2.222C23.444 6.82 22 7.29 22 9.76M38.227 15.175L22.03 9.76 5.785 15.175" stroke="#C0A78F" stroke-width="2" stroke-miterlimit="3.864" stroke-linecap="round" stroke-linejoin="round"/><path d="M3.822 13.969s5.376 4.473 18.21 4.473c12.835 0 18.177-4.473 18.177-4.473" stroke="#C0A78F" stroke-width="2" stroke-miterlimit="3.864" stroke-linecap="round" stroke-linejoin="round"/><path d="M3.884 13.918C2.227 16.778 1.266 19.599 1 22.381l4.549 2.405 2.259-1.81s4.958 3.425 4.52 12.443c-.438 9.019.418 10.802.418 10.802 1.284.907 9.253 1.168 9.253 1.168s7.97-.26 9.255-1.168c0 0 .857-1.783.418-10.802-.438-9.018 4.078-12.442 4.078-12.442l2.701 1.809L43 22.38c-.266-2.782-1.227-5.603-2.883-8.463" stroke="#C0A78F" stroke-width="2" stroke-miterlimit="3.864" stroke-linecap="round" stroke-linejoin="round"/><path d="M22 26.87a.793.793 0 100-1.587.793.793 0 000 1.587zM22 32.452a.793.793 0 100-1.587.793.793 0 000 1.587z" stroke="#C0A78F" stroke-width="2" stroke-miterlimit="3.864" stroke-linecap="round" stroke-linejoin="round"/></svg>