<svg width="18" height="19" fill="none" xmlns="http://www.w3.org/2000/svg"><path fill-rule="evenodd" clip-rule="evenodd" d="M5.593 18.05C2.526 18.05 0 15.525 0 12.434v-6.82C0 2.523 2.526 0 5.593 0h6.743c3.09 0 5.594 2.523 5.594 5.615v6.82c0 3.09-2.504 5.614-5.594 5.614H5.593zM1.827 5.615v6.82c0 2.09 1.691 3.795 3.766 3.795h6.743c2.075 0 3.766-1.704 3.766-3.796v-6.82c0-2.09-1.691-3.795-3.766-3.795H5.593c-2.075 0-3.766 1.704-3.766 3.796z" fill="#2F2F2F"/><path fill-rule="evenodd" clip-rule="evenodd" d="M4.307 9.025c0-2.591 2.097-4.705 4.668-4.705s4.646 2.114 4.646 4.705c0 2.59-2.075 4.705-4.646 4.705-2.571 0-4.668-2.114-4.668-4.705zm1.849 0c0 1.569 1.262 2.841 2.819 2.841 1.534 0 2.797-1.272 2.797-2.84 0-1.57-1.263-2.843-2.797-2.843-1.557 0-2.82 1.274-2.82 2.842zM13.847 5.524a1.41 1.41 0 01-1.398-1.408c0-.797.632-1.432 1.398-1.432.767 0 1.398.635 1.398 1.432a1.41 1.41 0 01-1.398 1.408z" fill="#2F2F2F"/></svg>