<?xml version="1.0" encoding="utf-8"?><svg viewBox="0 0 44 49" xmlns="http://www.w3.org/2000/svg" xmlns:xlink="http://www.w3.org/1999/xlink"><style>:root>svg{display:none}:root>svg:target{display:block}</style><svg viewBox="0 0 20 22" id="cart" xmlns="http://www.w3.org/2000/svg"><path d="M3.68 20.86H.498V4.502h3.235M5.89 5.189v-1.42C5.89 2.173 7.099.88 8.587.88c1.49 0 2.696 1.293 2.696 2.887v1.42"/><path class="apathh" d="M3.759 4.502h15.74V20.86H3.759V4.502z"/><path class="apathh" d="M3.759 4.502h15.74V20.86H3.759V4.502z"/><path class="apathh" d="M9.126 6.273v-2.8c0-1.431 1.207-2.592 2.696-2.592s2.696 1.16 2.696 2.593v2.799"/></svg><svg viewBox="0 0 25 21" id="fav" xmlns="http://www.w3.org/2000/svg"><path d="M12.577 4.246c-.696-.626-3.36-2.874-5.72-2.851-2.42.024-6.153 1.607-5.838 6.297.278 4.144 11.373 12.664 11.373 12.664.07.051.141.051.216 0 0 0 11.095-8.521 11.373-12.664.315-4.69-3.418-6.273-5.838-6.297-2.74-.027-5.893 3.01-5.893 3.01l-2.14 2.182"/></svg><svg viewBox="0 0 23 8" id="footer-icon-arrow" xmlns="http://www.w3.org/2000/svg"><path d="M19.066.783L22 3.716 19.066 6.65M0 3.717h21.267"/></svg><svg fill="none" viewBox="0 0 44 49" id="sign-icon" xmlns="http://www.w3.org/2000/svg"><path d="M18.816 4.071a3.071 3.071 0 116.143 0c0 .874-.38 1.663-.951 2.222C23.444 6.82 22 7.29 22 9.76M38.227 15.175L22.03 9.76 5.785 15.175" stroke="#C0A78F" stroke-width="2" stroke-miterlimit="3.864" stroke-linecap="round" stroke-linejoin="round"/><path d="M3.822 13.969s5.376 4.473 18.21 4.473c12.835 0 18.177-4.473 18.177-4.473" stroke="#C0A78F" stroke-width="2" stroke-miterlimit="3.864" stroke-linecap="round" stroke-linejoin="round"/><path d="M3.884 13.918C2.227 16.778 1.266 19.599 1 22.381l4.549 2.405 2.259-1.81s4.958 3.425 4.52 12.443c-.438 9.019.418 10.802.418 10.802 1.284.907 9.253 1.168 9.253 1.168s7.97-.26 9.255-1.168c0 0 .857-1.783.418-10.802-.438-9.018 4.078-12.442 4.078-12.442l2.701 1.809L43 22.38c-.266-2.782-1.227-5.603-2.883-8.463" stroke="#C0A78F" stroke-width="2" stroke-miterlimit="3.864" stroke-linecap="round" stroke-linejoin="round"/><path d="M22 26.87a.793.793 0 100-1.587.793.793 0 000 1.587zM22 32.452a.793.793 0 100-1.587.793.793 0 000 1.587z" stroke="#C0A78F" stroke-width="2" stroke-miterlimit="3.864" stroke-linecap="round" stroke-linejoin="round"/></svg></svg>