<svg width="20" height="12" fill="none" xmlns="http://www.w3.org/2000/svg"><path fill-rule="evenodd" clip-rule="evenodd" d="M11.123 11.66s.335-.038.503-.21c.168-.172.149-.5.149-.5s-.019-1.51.67-1.721c.69-.23 1.566 1.455 2.498 2.086.708.499 1.248.383 1.248.383l2.478-.038s1.305-.076.69-1.11c-.056-.077-.354-.766-1.846-2.164-1.565-1.455-1.36-1.224.522-3.733 1.137-1.55 1.602-2.488 1.453-2.89-.13-.383-.969-.287-.969-.287l-2.813.019s-.204-.019-.354.076c-.149.077-.242.287-.242.287s-.447 1.206-1.043 2.22c-1.249 2.125-1.733 2.24-1.938 2.106-.485-.307-.373-1.245-.373-1.895 0-2.087.317-2.949-.596-3.16-.298-.076-.522-.133-1.304-.133-1.007-.02-1.845 0-2.33.23-.316.173-.559.516-.41.536.187.019.597.115.82.422.28.383.28 1.283.28 1.283s.167 2.432-.392 2.737c-.372.211-.894-.23-2.012-2.163-.559-.995-.988-2.087-.988-2.087s-.093-.21-.242-.306c-.168-.134-.428-.192-.428-.192l-2.665.02s-.391.018-.54.19c-.13.153 0 .48 0 .48s2.068 4.92 4.434 7.388c2.163 2.279 4.622 2.125 4.622 2.125h1.118v.001z" fill="#2F2F2F"/></svg>